<svg width="30" height="30" viewBox="0 0 30 30" fill="none" xmlns="http://www.w3.org/2000/svg">
<path d="M15 12C13.3431 12 12 13.3431 12 15C12 16.6569 13.3431 18 15 18V29C7.26801 29 1 22.732 1 15C1 7.26801 7.26801 1 15 1V12Z" fill="black"/>
<path d="M18 1H16V5H18V3V1ZM27 5C28.1046 5 29 4.10457 29 3C29 1.89543 28.1046 1 27 1V3V5ZM18 3V5H27V3V1H18V3Z" fill="black"/>
<path d="M18 25H16V29H18V27V25ZM23 29C24.1046 29 25 28.1046 25 27C25 25.8954 24.1046 25 23 25V27V29ZM18 27V29H23V27V25H18V27Z" fill="black"/>
<path d="M18 7H16V11H18V9V7ZM20 11C21.1046 11 22 10.1046 22 9C22 7.89543 21.1046 7 20 7V9V11ZM18 9V11H20V9V7H18V9Z" fill="black"/>
<path d="M18 19H16V23H18V21V19ZM19 23C20.1046 23 21 22.1046 21 21C21 19.8954 20.1046 19 19 19V21V23ZM18 21V23H19V21V19H18V21Z" fill="black"/>
<path d="M24 21H27" stroke="black" stroke-width="4" stroke-linecap="round"/>
<path d="M15 15L26 15" stroke="black" stroke-width="4" stroke-linecap="round"/>
</svg>
