<svg width="30" height="30" viewBox="0 0 30 30" fill="none" xmlns="http://www.w3.org/2000/svg">
<g clip-path="url(#clip0_18_3)">
<path d="M15 11C12.7909 11 11 12.7909 11 15C11 17.2091 12.7909 19 15 19V30C6.71573 30 0 23.2843 0 15C0 6.71573 6.71573 0 15 0V11Z" fill="black"/>
<path d="M22 22H18V30H22V26V22ZM25 30C27.2091 30 29 28.2091 29 26C29 23.7909 27.2091 22 25 22V26V30ZM22 26V30H25V26V22H22V26Z" fill="#F64848"/>
<path d="M22 11H18V19H22V15V11ZM26 19C28.2091 19 30 17.2091 30 15C30 12.7909 28.2091 11 26 11V15V19ZM22 15V19H26V15V11H22V15Z" fill="black"/>
<path d="M22 0L18 0V8H22V4V0ZM23 8C25.2091 8 27 6.20914 27 4C27 1.79086 25.2091 0 23 0V4V8ZM22 4V8H23V4V0H22V4Z" fill="#373AFF"/>
</g>
<defs>
<clipPath id="clip0_18_3">
<rect width="30" height="30" fill="white"/>
</clipPath>
</defs>
</svg>
