<svg width="30" height="30" viewBox="0 0 30 30" fill="none" xmlns="http://www.w3.org/2000/svg">
<path d="M15 11C12.7909 11 11 12.7909 11 15C11 17.2091 12.7909 19 15 19V29C7.26801 29 1 22.732 1 15C1 7.26801 7.26801 1 15 1V11Z" fill="black"/>
<path d="M19 1L17 1V5H19V3V1ZM27 5C28.1046 5 29 4.10457 29 3C29 1.89543 28.1046 1 27 1V3V5ZM19 3V5L27 5V3V1L19 1V3Z" fill="black"/>
<path d="M19 25H17V29H19V27V25ZM24 29C25.1046 29 26 28.1046 26 27C26 25.8954 25.1046 25 24 25V27V29ZM19 27V29H24V27V25H19V27Z" fill="black"/>
<path d="M19 7H17V11H19V9V7ZM20 11C21.1046 11 22 10.1046 22 9C22 7.89543 21.1046 7 20 7V9V11ZM19 9V11H20V9V7H19V9Z" fill="black"/>
<path d="M19 19H17V23H19V21V19ZM20 23C21.1046 23 22 22.1046 22 21C22 19.8954 21.1046 19 20 19V21V23ZM19 21V23H20V21V19H19V21Z" fill="black"/>
<path d="M25 21H27" stroke="black" stroke-width="4" stroke-linecap="round"/>
<path d="M15 15L26 15" stroke="black" stroke-width="4" stroke-linecap="round"/>
</svg>
